<svg xmlns="http://www.w3.org/2000/svg" xmlns:svg="http://www.w3.org/2000/svg" class="block h-auto max-w-full max-h-[80vh] hex" viewBox="152 87 774.5 904.5">
 <g class="layer">
  <title>Layer 1</title>
  <path clip-rule="evenodd" d="m539,87l97,394l289,-142l-228,200l229.5,201.5l-289,-145l-98.5,396l-99,-396.5l-287,144.5l227.5,-200.5l-228.5,-200.5l288,144.5l99,-396zm-89,401l89,-355.5l88,356l-88,44l-89,-44.5zm-222.5,-98.5l205.5,103.5l-44,38.5l-161.5,-142zm217,108.5l-46.5,41l46.5,41.5l82.5,-41.5l-82.5,-41zm-55.5,49l45,39l-209.5,105l164.5,-144zm150,-1.5l-88.5,45.5l88,355.5l89,-356.5l-88.5,-44.5zm12,-6.5l82.5,-40.5l46,40.5l-47,41l-81.5,-41zm137.5,-7.5l-44.5,-39l211,-106.5l-166.5,145.5zm0,15.5l166.5,145.5l-210.5,-106.5l44,-39z" fill="#000" fill-rule="evenodd" id="svg_1"/>
 </g>
</svg>